# xmcd
#
# Track frame offsets:
# 150
# 12263
# 25787
# 36903
# 52306
# 68749
# 86450
# 99831
# 110918
# 124570
#
# Disc length: 1795 seconds
#
#
# Revision: 0
# Processed by: cddbd v1.5PL3 Copyright (c) Steve Scherf et al.
# Submitted via: FreeRIP 2.53 
#
DISCID=7d07010a
DTITLE=Gayle, Crystal - Certified Hits
DYEAR=1900
DGENRE=
TTITLE0=Don't It Make My Brown Eyes Blue
TTITLE1=Why Have You Left The One You Left Me For
TTITLE2=Somebody Loves You
TTITLE3=When I Dream
TTITLE4=I'll Get Over You
TTITLE5=You Never Miss A Real Good Thing Til He Says Goodbye
TTITLE6=Talking In Your Sleep
TTITLE7=Ready For The Times To Get Better
TTITLE8=I'd Do It All Over Again
TTITLE9=Wrong Road Again
EXTD=
EXTT0=
EXTT1=
EXTT2=
EXTT3=
EXTT4=
EXTT5=
EXTT6=
EXTT7=
EXTT8=
EXTT9=
PLAYORDER=
